# xmcd CD database file
# Copyright (C) 1996 Ti Kan
#
# Track frame offsets:
# 	182
# 	11582
# 	23237
# 	36805
# 	50235
# 	63407
# 	77730
# 	89860
# 	105940
# 	118267
# 	129882
# 	143957
# 	156927
# 	170137
# 	182045
# 	199720
# 	213352
# 	225235
# 	237887
# 	254820
# 	265792
# 	277982
# 	289687
# 	299817
#
# Disc length: 4167 seconds
#
# Revision: 1
# Processed by: cddbd v1.4b41PL1 Copyright (c) Steve Scherf et al.
# Submitted via: DiscPlay 3.4.1
#
DISCID=6a104518
DTITLE=Conway Twitty and Loretta Lynn - The Best Of Conway and Loretta
DYEAR=1900
DGENRE=
TTITLE0=Louisiana Woman, Mississippi Man
TTITLE1=I Can't Help It If I'm Still In Love With You
TTITLE2=Feelins'
TTITLE3=Release Me
TTITLE4=Spiders And Snakes
TTITLE5=I Still Believe In Waltzes
TTITLE6=As Soon As I Hang Up The Phone
TTITLE7=Country Bumpkin
TTITLE8=Please Help Me, I'm Falling
TTITLE9=Hey Good Lookin
TTITLE10=Back Street Affair
TTITLE11=It's True Love
TTITLE12=Faded Love
TTITLE13=After The Fire Is Gone
TTITLE14=Back Home Again
TTITLE15=Bye Bye Love
TTITLE16=It's Only Make Believe
TTITLE17=You Lay So Easy On My Mind
TTITLE18=Making Believe
TTITLE19=Lead Me On
TTITLE20=Easy Loving
TTITLE21=Pickin' Wild Mountain Berries
TTITLE22=Half As Much
TTITLE23=The Letter
EXTD=
EXTT0=
EXTT1=
EXTT2=
EXTT3=
EXTT4=
EXTT5=
EXTT6=
EXTT7=
EXTT8=
EXTT9=
EXTT10=
EXTT11=
EXTT12=
EXTT13=
EXTT14=
EXTT15=
EXTT16=
EXTT17=
EXTT18=
EXTT19=
EXTT20=
EXTT21=
EXTT22=
EXTT23=
PLAYORDER=
